<?xml version="1.0" encoding="UTF-8"?>
<svg version="1.1" xmlns="http://www.w3.org/2000/svg" width="256" height="114">
<path d="M0 0 C13.2 0 26.4 0 40 0 C40 3.96 40 7.92 40 12 C30.76 12 21.52 12 12 12 C11.67 15.3 11.34 18.6 11 22 C20.57 22 30.14 22 40 22 C40 25.3 40 28.6 40 32 C39 33 39 33 36.31616211 33.11352539 C35.14835205 33.10828857 33.98054199 33.10305176 32.77734375 33.09765625 C31.51728516 33.09443359 30.25722656 33.09121094 28.95898438 33.08789062 C27.61848891 33.07953403 26.27799412 33.07106907 24.9375 33.0625 C23.59310058 33.0574866 22.2486994 33.05292342 20.90429688 33.04882812 C17.60282059 33.03699488 14.30143197 33.02050971 11 33 C11 36.3 11 39.6 11 43 C20.57 43 30.14 43 40 43 C40 46.63 40 50.26 40 54 C26.8 54 13.6 54 0 54 C0 36.18 0 18.36 0 0 Z " fill="#000000" transform="translate(33,24)"/>
<path d="M0 0 C4.29 0 8.58 0 13 0 C15.63303818 5.81647466 18.26567387 11.63313125 20.89794922 17.44995117 C21.79204639 19.42558624 22.68625034 21.40117299 23.58056641 23.37670898 C24.87170563 26.2288744 26.16245093 29.08121781 27.453125 31.93359375 C28.04556 33.24196449 28.04556 33.24196449 28.64996338 34.57676697 C29.40356021 36.24258896 30.15528446 37.90925967 30.90490723 39.57687378 C31.65171066 41.22933557 32.40790334 42.87757836 33.17224121 44.52200317 C33.53918091 45.32048676 33.90612061 46.11897034 34.28417969 46.94165039 C34.77951202 48.00616173 34.77951202 48.00616173 35.28485107 49.09217834 C36 51 36 51 36 54 C32.04 54 28.08 54 24 54 C20 46.25 20 46.25 20 44 C11.09 44 2.18 44 -7 44 C-7.495 46.475 -7.495 46.475 -8 49 C-8.99 51.475 -8.99 51.475 -10 54 C-14.29 54 -18.58 54 -23 54 C-21.10976861 48.07166248 -18.98387015 42.44800103 -16.34765625 36.81640625 C-16.00625107 36.07599594 -15.66484589 35.33558563 -15.31309509 34.57273865 C-14.2340111 32.23390437 -13.14875594 29.89801083 -12.0625 27.5625 C-10.63349219 24.48195235 -9.20753407 21.40002084 -7.78515625 18.31640625 C-7.44787506 17.58539703 -7.11059387 16.85438782 -6.76309204 16.10122681 C-4.33092785 10.79799403 -2.08907565 5.44905111 0 0 Z M6 14 C4.82905995 16.7899439 3.66309073 19.58178597 2.5 22.375 C2.16613281 23.1690625 1.83226562 23.963125 1.48828125 24.78125 C1.01455078 25.92207031 1.01455078 25.92207031 0.53125 27.0859375 C0.23798828 27.7876709 -0.05527344 28.4894043 -0.35742188 29.21240234 C-1.11275781 30.99708561 -1.11275781 30.99708561 -1 33 C4.28 33 9.56 33 15 33 C12.36 26.73 9.72 20.46 7 14 C6.67 14 6.34 14 6 14 Z " fill="#000000" transform="translate(97,24)"/>
<path d="M0 0 C3 2.5625 3 2.5625 5 5 C5.66 5.66 6.32 6.32 7 7 C7 7.99 7 8.98 7 10 C0.67714885 13.03983229 0.67714885 13.03983229 -2.125 12.875 C-4 12 -4 12 -6.0625 10.4375 C-10.48765019 8.27200097 -15.15557233 8.23509037 -20 9 C-21.91293247 10.16246676 -21.91293247 10.16246676 -23 12 C-23 13.32 -23 14.64 -23 16 C-19.31131633 18.23412542 -15.43368579 18.67037985 -11.25 19.3125 C-4.0529708 20.53944143 1.66381156 22.22796746 6.64453125 27.859375 C9.02971641 31.62618038 9.10136987 35.62082156 9 40 C7.35229074 45.91236854 4.87440515 48.5879164 0 52 C-7.45169879 55.52376943 -16.99144147 56.02408685 -24.93359375 53.859375 C-30.61028905 51.49855654 -35.46994367 47.69262674 -38 42 C-38 41.34 -38 40.68 -38 40 C-36.73581754 39.30034557 -35.46334598 38.61565237 -34.1875 37.9375 C-33.47980469 37.55464844 -32.77210938 37.17179687 -32.04296875 36.77734375 C-30 36 -30 36 -27 37 C-26.195625 37.825 -25.39125 38.65 -24.5625 39.5 C-21.08435734 42.89330991 -18.30388928 43.15139225 -13.5625 43.25 C-9.60252321 43.17811923 -6.91743613 42.91743613 -4 40 C-3.92201411 37.66797027 -3.9164313 35.33183634 -4 33 C-5.27875 32.75765625 -6.5575 32.5153125 -7.875 32.265625 C-9.58345328 31.92768919 -11.29178005 31.58911329 -13 31.25 C-14.25876953 31.01410156 -14.25876953 31.01410156 -15.54296875 30.7734375 C-22.39705386 29.39199399 -28.52964306 27.53211586 -33.5 22.4375 C-35.63881235 17.53605502 -36.00748775 13.25878076 -35 8 C-32.33304449 2.94922468 -28.29629285 0.02836747 -23 -2 C-15.19883451 -4.25823212 -7.35751742 -3.21653946 0 0 Z " fill="#000000" transform="translate(170,25)"/>
<path d="M0 0 C4.73299402 -1.26026468 9.46207367 -2.21306613 14 0 C19.30607601 5.65793781 22.67520908 13.05873744 26 20 C27.60561826 17.60512849 29.20953407 15.20914587 30.8125 12.8125 C31.26431641 12.13896484 31.71613281 11.46542969 32.18164062 10.77148438 C32.62314453 10.11083984 33.06464844 9.45019531 33.51953125 8.76953125 C33.95628174 8.12540283 34.39303223 7.48127441 34.84301758 6.81762695 C36.14188643 4.86584911 36.14188643 4.86584911 37.375 2.03125 C39 0 39 0 42.35546875 -0.48828125 C43.62003906 -0.43027344 44.88460937 -0.37226563 46.1875 -0.3125 C47.45980469 -0.26738281 48.73210937 -0.22226562 50.04296875 -0.17578125 C51.01878906 -0.11777344 51.99460938 -0.05976563 53 0 C51.3917692 4.80610015 48.69711444 8.58232279 45.8125 12.6875 C45.07700928 13.76729126 45.07700928 13.76729126 44.32666016 14.86889648 C42.25429886 17.89372729 40.22922591 20.74884814 37.75390625 23.4609375 C30.35964352 31.73144342 31.93882296 43.52998726 32 54 C28.04 54 24.08 54 20 54 C20.14824219 52.67613281 20.29648438 51.35226563 20.44921875 49.98828125 C21.53801194 31.62840217 13.43932981 20.17866941 2.87103271 6.06051636 C0 2.20065416 0 2.20065416 0 0 Z " fill="#000000" transform="translate(179,24)"/>
</svg>
