<?xml version="1.0" encoding="UTF-8"?>
<svg version="1.1" xmlns="http://www.w3.org/2000/svg" width="123" height="174">
<path d="M0 0 C40.59 0 81.18 0 123 0 C123 57.42 123 114.84 123 174 C82.41 174 41.82 174 0 174 C0 116.58 0 59.16 0 0 Z " fill="#1B1B1B" transform="translate(0,0)"/>
<path d="M0 0 C20.46 0 40.92 0 62 0 C62 2.97 62 5.94 62 9 C36.755 9.495 36.755 9.495 11 10 C10.67 18.91 10.34 27.82 10 37 C25.51 37 41.02 37 57 37 C57 40.3 57 43.6 57 47 C41.82 47.33 26.64 47.66 11 48 C10.67 57.24 10.34 66.48 10 76 C27.49 76 44.98 76 63 76 C63 78.97 63 81.94 63 85 C42.21 85 21.42 85 0 85 C0 56.95 0 28.9 0 0 Z " fill="#F2F2F2" transform="translate(4,44)"/>
<path d="M0 0 C4.29 0 8.58 0 13 0 C14.97658954 3.95317908 15.24611684 5.36206127 15.22705078 9.59472656 C15.22689972 10.71558655 15.22674866 11.83644653 15.22659302 12.99127197 C15.21627045 14.19555847 15.20594788 15.39984497 15.1953125 16.640625 C15.1924826 17.87794373 15.18965271 19.11526245 15.18673706 20.39007568 C15.177442 23.67151541 15.15948705 26.95275754 15.1373291 30.23413086 C15.11683048 33.58575622 15.10789724 36.93739007 15.09765625 40.2890625 C15.07730163 46.85953235 15.03815122 53.42951283 15 60 C5.1 60 -4.8 60 -15 60 C-15.99 62.97 -16.98 65.94 -18 69 C-18.58061084 70.47077506 -19.18089441 71.93446102 -19.82421875 73.37890625 C-20.13037109 74.07177734 -20.43652344 74.76464844 -20.75195312 75.47851562 C-21.06068359 76.16623047 -21.36941406 76.85394531 -21.6875 77.5625 C-22.16799805 78.6462793 -22.16799805 78.6462793 -22.65820312 79.75195312 C-23.43512943 81.50293629 -24.21702495 83.25171324 -25 85 C-28.3 85 -31.6 85 -35 85 C-34.38317407 81.3830512 -33.39513513 78.25671096 -31.94970703 74.88793945 C-31.52480988 73.89111649 -31.09991272 72.89429352 -30.66213989 71.86726379 C-30.19871185 70.79344955 -29.73528381 69.71963531 -29.2578125 68.61328125 C-28.77480682 67.48343307 -28.29180115 66.3535849 -27.79415894 65.1894989 C-26.24226151 61.56189079 -24.68382711 57.937135 -23.125 54.3125 C-22.1141318 51.95396952 -21.10371082 49.5952473 -20.09375 47.23632812 C-18.58354016 43.70912232 -17.07300565 40.18206054 -15.56060791 36.65579224 C-10.3298949 24.45568438 -5.16073359 12.22985684 0 0 Z " fill="#FBFBFB" transform="translate(108,44)"/>
<path d="M0 0 C5.71678313 5.04724997 8.6198348 12.64625224 9.27099609 20.10351562 C9.52185858 27.43251078 9.23698405 34.65349458 9 42 C0.42 42 -8.16 42 -17 42 C-15.19461351 35.98204503 -13.59943571 30.68977902 -11.15234375 25.0390625 C-10.8949794 24.44120941 -10.63761505 23.84335632 -10.37245178 23.22738647 C-9.56593227 21.35765456 -8.75176192 19.49137083 -7.9375 17.625 C-7.38949349 16.35567607 -6.8419645 15.08614588 -6.29492188 13.81640625 C-2.00199405 3.89332215 -2.00199405 3.89332215 0 0 Z " fill="#676767" transform="translate(114,54)"/>
<path d="M0 0 C0 3.63 0 7.26 0 11 C-0.66 9.68 -1.32 8.36 -2 7 C-6.29 7 -10.58 7 -15 7 C-15.391875 8.44375 -15.78375 9.8875 -16.1875 11.375 C-17.62686731 15.78306239 -17.62686731 15.78306239 -20.6875 17.5625 C-21.450625 17.706875 -22.21375 17.85125 -23 18 C-23.77734375 15.80078125 -23.77734375 15.80078125 -24 13 C-22.12890625 10.54296875 -22.12890625 10.54296875 -19.5625 8.1875 C-18.71816406 7.39730469 -17.87382813 6.60710938 -17.00390625 5.79296875 C-16.34261719 5.20128906 -15.68132812 4.60960937 -15 4 C-14.01 4.33 -13.02 4.66 -12 5 C-10.13675007 3.87410253 -8.58118486 2.52578731 -6.9140625 1.12890625 C-5 0 -5 0 0 0 Z " fill="#4F4F4F" transform="translate(123,37)"/>
<path d="M0 0 C0.66 0.33 1.32 0.66 2 1 C5.0604194 1.15745826 8.101419 1.25866877 11.1640625 1.31640625 C12.52487442 1.3475779 12.52487442 1.3475779 13.91317749 1.37937927 C16.8170398 1.44487135 19.72099405 1.50375814 22.625 1.5625 C24.59115542 1.60568555 26.55730147 1.64929985 28.5234375 1.69335938 C33.34886362 1.80055239 38.1743824 1.90182081 43 2 C43 4.97 43 7.94 43 11 C42.67 11 42.34 11 42 11 C42 8.36 42 5.72 42 3 C21.54 3 1.08 3 -20 3 C-20 2.67 -20 2.34 -20 2 C-18.72382813 1.93941406 -17.44765625 1.87882812 -16.1328125 1.81640625 C-14.46352984 1.73200432 -12.79425963 1.64735614 -11.125 1.5625 C-10.28324219 1.52318359 -9.44148437 1.48386719 -8.57421875 1.44335938 C-7.76855469 1.40146484 -6.96289062 1.35957031 -6.1328125 1.31640625 C-5.01737061 1.26141968 -5.01737061 1.26141968 -3.87939453 1.20532227 C-1.91135688 1.10044135 -1.91135688 1.10044135 0 0 Z " fill="#6E6E6E" transform="translate(24,41)"/>
<path d="M0 0 C-0.65793165 1.67013418 -1.32723284 3.3357865 -2 5 C-2.6496875 6.8253125 -2.6496875 6.8253125 -3.3125 8.6875 C-5 12 -5 12 -7.6875 13.4375 C-8.450625 13.623125 -9.21375 13.80875 -10 14 C-10.76953125 11.80078125 -10.76953125 11.80078125 -11 9 C-9.19921875 6.54296875 -9.19921875 6.54296875 -6.6875 4.1875 C-5.86636719 3.39730469 -5.04523438 2.60710938 -4.19921875 1.79296875 C-2 0 -2 0 0 0 Z " fill="#4E4E4E" transform="translate(110,41)"/>
<path d="M0 0 C0.94875 0.350625 1.8975 0.70125 2.875 1.0625 C2.875 1.3925 2.875 1.7225 2.875 2.0625 C-5.705 2.0625 -14.285 2.0625 -23.125 2.0625 C-23.125 1.7325 -23.125 1.4025 -23.125 1.0625 C-21.84882813 1.00191406 -20.57265625 0.94132812 -19.2578125 0.87890625 C-17.58852984 0.79450432 -15.91925963 0.70985614 -14.25 0.625 C-13.40824219 0.58568359 -12.56648437 0.54636719 -11.69921875 0.50585938 C-10.89355469 0.46396484 -10.08789062 0.42207031 -9.2578125 0.37890625 C-8.14237061 0.32391968 -8.14237061 0.32391968 -7.00439453 0.26782227 C-1.21540122 -0.36462037 -1.21540122 -0.36462037 0 0 Z " fill="#626262" transform="translate(27.125,41.9375)"/>
<path d="M0 0 C-1.44781793 3.44428265 -3.27694609 5.36130962 -6.125 7.75 C-7.21167969 8.67039062 -7.21167969 8.67039062 -8.3203125 9.609375 C-8.87460938 10.06828125 -9.42890625 10.5271875 -10 11 C-10 8 -10 8 -8.3203125 5.95703125 C-7.23363281 4.89548828 -7.23363281 4.89548828 -6.125 3.8125 C-5.40570313 3.09707031 -4.68640625 2.38164063 -3.9453125 1.64453125 C-2 0 -2 0 0 0 Z " fill="#3F3F3F" transform="translate(110,41)"/>
</svg>
